<svg width="78" height="80" viewBox="0 0 78 80" fill="none" xmlns="http://www.w3.org/2000/svg">
<path d="M76.9187 25.1071C76.6821 24.544 76.331 24.0363 75.8878 23.616C75.4445 23.1958 74.9188 22.8722 74.3439 22.6659C73.769 22.4596 73.1575 22.375 72.5482 22.4175C71.9389 22.46 71.345 22.6286 70.8044 22.9128C68.7469 23.9912 66.7699 25.2167 64.8887 26.5796C64.8887 26.3484 64.8887 26.1178 64.8887 25.8865C64.8887 19.0212 62.1615 12.4371 57.307 7.58261C52.4525 2.72811 45.8684 0.00088501 39.0031 0.00088501C32.1378 0.00088501 25.5537 2.72811 20.6992 7.58261C15.8447 12.4371 13.1175 19.0212 13.1175 25.8865V26.5796C11.2363 25.2167 9.25934 23.9912 7.20186 22.9128C6.22775 22.3956 5.0952 22.2622 4.02757 22.5388C2.95994 22.8155 2.03474 23.4822 1.43441 24.4074C0.834089 25.3326 0.602227 26.4491 0.784554 27.5369C0.966881 28.6246 1.55016 29.6045 2.41936 30.2834C6.12911 33.3125 9.41331 36.8281 12.1831 40.7353C11.6488 45.0196 10.8839 49.272 9.89186 53.474L6.41686 67.6152C6.38115 67.7609 6.37575 67.9123 6.40102 68.0601C6.42628 68.2079 6.48166 68.3489 6.56372 68.4744C6.64577 68.5999 6.75275 68.7071 6.87802 68.7895C7.00328 68.8719 7.14414 68.9277 7.29186 68.9534L11.38 69.6665C12.1056 69.7929 12.7955 70.0738 13.4031 70.49C14.0107 70.9062 14.5218 71.4481 14.9019 72.079L15.3987 72.9046C16.1225 74.102 17.1731 75.0679 18.4269 75.6888C19.6808 76.3097 21.0858 76.5598 22.4769 76.4096L23.4406 76.304C24.1701 76.2249 24.9081 76.3025 25.6053 76.5315C26.3024 76.7606 26.9426 77.1358 27.4831 77.6321L28.1262 78.2234C29.1772 79.1908 30.488 79.83 31.8974 80.0624C33.3068 80.2949 34.7534 80.1103 36.0594 79.5315L36.9169 79.1515C37.5734 78.8622 38.2831 78.7128 39.0006 78.7128C39.7181 78.7128 40.4278 78.8622 41.0844 79.1515L41.9419 79.5315C43.2477 80.1109 44.6944 80.2957 46.104 80.0633C47.5135 79.8309 48.8243 79.1913 49.875 78.2234L50.5181 77.6321C51.0586 77.1359 51.6989 76.7607 52.396 76.5317C53.0931 76.3027 53.8311 76.225 54.5606 76.304L55.5244 76.4096C56.9156 76.5605 58.321 76.3108 59.575 75.6897C60.829 75.0686 61.8794 74.1021 62.6025 72.904L63.1025 72.0796C63.4824 71.4486 63.9934 70.9065 64.6011 70.4902C65.2087 70.0738 65.8987 69.7929 66.6244 69.6665L70.7125 68.9534C70.8602 68.9277 71.0011 68.8719 71.1263 68.7895C71.2516 68.7071 71.3586 68.5999 71.4406 68.4744C71.5227 68.3489 71.5781 68.2079 71.6033 68.0601C71.6286 67.9123 71.6232 67.7609 71.5875 67.6152L68.115 53.4828C67.1215 49.2771 66.3558 45.0209 65.8212 40.7328C68.591 36.8256 71.8752 33.31 75.585 30.2809C76.3449 29.6849 76.8874 28.8552 77.1285 27.92C77.3695 26.9848 77.2958 25.9962 76.9187 25.1071ZM74.2406 28.5553C70.2363 31.82 66.7098 35.6305 63.7644 39.8753C63.6251 40.0902 63.5656 40.3472 63.5962 40.6015C64.1431 45.1076 64.9403 49.5797 65.9844 53.9971L69.1794 66.9971L66.2419 67.5096C65.2077 67.6894 64.2242 68.0894 63.3581 68.6825C62.492 69.2756 61.7634 70.0479 61.2219 70.9471L60.7219 71.7721C60.2137 72.612 59.4766 73.2895 58.5969 73.7251C57.7173 74.1607 56.7316 74.3364 55.7556 74.2315L54.7912 74.1259C53.7516 74.0123 52.6997 74.1224 51.7062 74.4488C50.7126 74.7752 49.8003 75.3104 49.0306 76.0184L48.3875 76.6096C47.6503 77.2888 46.7306 77.7376 45.7416 77.9008C44.7527 78.064 43.7376 77.9346 42.8212 77.5284L41.9637 77.1478C41.0287 76.7339 40.0175 76.5202 38.995 76.5202C37.9725 76.5202 36.9613 76.7339 36.0262 77.1478L35.1687 77.5284C34.2523 77.9343 33.2373 78.0637 32.2484 77.9004C31.2595 77.7372 30.3398 77.2885 29.6025 76.6096L28.9594 76.0184C28.1896 75.3104 27.2774 74.7752 26.2838 74.4488C25.2902 74.1224 24.2384 74.0123 23.1987 74.1259L22.2344 74.2315C21.2585 74.3359 20.2731 74.1601 19.3935 73.7246C18.514 73.2892 17.7767 72.6121 17.2681 71.7728L16.7712 70.9471C16.2297 70.0479 15.5011 69.2756 14.635 68.6825C13.7689 68.0894 12.7854 67.6894 11.7512 67.5096L8.81374 66.9971L12.0112 53.9846C13.054 49.5702 13.8505 45.1012 14.3969 40.5984C14.4275 40.3441 14.368 40.0871 14.2287 39.8721C11.2852 35.6289 7.76105 31.8196 3.75936 28.5553C3.32643 28.2107 3.03758 27.7171 2.94928 27.1709C2.86099 26.6247 2.97961 26.0652 3.28195 25.6018C3.58428 25.1384 4.04859 24.8045 4.58408 24.6652C5.11958 24.526 5.68774 24.5915 6.17749 24.849C8.76147 26.193 11.2039 27.7931 13.4681 29.6253C13.626 29.7561 13.8176 29.84 14.0209 29.8672C14.2242 29.8944 14.431 29.8639 14.6178 29.7792C14.8046 29.6944 14.9638 29.5589 15.0773 29.388C15.1907 29.2171 15.2538 29.0178 15.2594 28.8128C15.2831 27.8384 15.3019 26.864 15.3019 25.889C15.3019 19.6039 17.7986 13.5762 22.2429 9.1319C26.6871 4.68764 32.7148 2.19088 39 2.19088C45.2851 2.19088 51.3128 4.68764 55.7571 9.1319C60.2013 13.5762 62.6981 19.6039 62.6981 25.889C62.6981 26.864 62.7169 27.8384 62.7406 28.8128C62.7456 29.0181 62.8083 29.2178 62.9215 29.3891C63.0347 29.5605 63.1939 29.6965 63.3808 29.7816C63.5677 29.8667 63.7748 29.8974 63.9783 29.8704C64.1819 29.8433 64.3737 29.7594 64.5319 29.6284C66.796 27.796 69.2385 26.1957 71.8225 24.8515C72.0948 24.7084 72.394 24.6235 72.7009 24.6022C73.0078 24.5809 73.3158 24.6236 73.6054 24.7276C73.8949 24.8316 74.1597 24.9947 74.3829 25.2065C74.6061 25.4182 74.7828 25.6741 74.9019 25.9578C75.0923 26.4032 75.1307 26.899 75.0112 27.3685C74.8917 27.838 74.6209 28.2551 74.2406 28.5553Z" fill="white"/>
<path d="M30.9138 13.8281C28.3938 13.8281 26.3438 16.3344 26.3438 19.4144C26.3438 22.4944 28.3938 25 30.9138 25C33.4338 25 35.4844 22.4937 35.4844 19.4144C35.4844 16.335 33.4375 13.8281 30.9138 13.8281ZM30.9138 22.8125C29.6225 22.8125 28.5312 21.2562 28.5312 19.4144C28.5312 17.5725 29.625 16.0156 30.9138 16.0156C32.2025 16.0156 33.2969 17.5719 33.2969 19.4144C33.2969 21.2569 32.2056 22.8125 30.9138 22.8125Z" fill="white"/>
<path d="M47.0856 13.8281C44.5656 13.8281 42.5156 16.3344 42.5156 19.4144C42.5156 22.4944 44.5656 25 47.0856 25C49.6056 25 51.6562 22.4937 51.6562 19.4144C51.6562 16.335 49.6062 13.8281 47.0856 13.8281ZM47.0856 22.8125C45.7944 22.8125 44.7031 21.2562 44.7031 19.4144C44.7031 17.5725 45.7944 16.0156 47.0856 16.0156C48.3769 16.0156 49.4688 17.5719 49.4688 19.4144C49.4688 21.2569 48.375 22.8125 47.0856 22.8125Z" fill="white"/>
<path d="M39 24.2969C36.35 24.2969 34.2731 27.4713 34.2731 31.5238C34.2731 35.5763 36.35 38.75 39 38.75C41.65 38.75 43.7262 35.5756 43.7262 31.5238C43.7262 27.4719 41.65 24.2969 39 24.2969ZM39 36.5625C37.8012 36.5625 36.4606 34.4075 36.4606 31.5238C36.4606 28.64 37.8012 26.4844 39 26.4844C40.1987 26.4844 41.5387 28.6394 41.5387 31.5238C41.5387 34.4081 40.1987 36.5625 39 36.5625Z" fill="white"/>
</svg>
